<?xml version="1.0" encoding="UTF-8"?>
<svg id="Layer_2" data-name="Layer 2" xmlns="http://www.w3.org/2000/svg" viewBox="0 0 64 64">
  <defs>
    <style>
      .cls-1 {
        fill: #036;
      }

      .cls-2 {
        fill: ivory;
      }
    </style>
  </defs>
  <g id="Layer_1-2" data-name="Layer 1">
    <rect class="cls-2" width="64" height="64"/>
    <g>
      <path class="cls-1" d="M11.93,51.43c2.07-.69,2.51-2.57,2.51-7.09v-27.97c0-4.52-.44-6.4-2.51-7.09v-.88h11.66v.88c-2.07.69-2.51,2.57-2.51,7.09v12.1h21.82v-12.1c0-4.52-.44-6.4-2.51-7.09v-.88h11.66v.88c-2.07.69-2.51,2.57-2.51,7.09v27.97c0,4.52.44,6.4,2.51,7.09v.88h-11.66v-.88c2.07-.69,2.51-2.57,2.51-7.09v-14.74h-21.82v14.74c0,4.52.44,6.4,2.51,7.09v.88h-11.66v-.88Z"/>
      <rect class="cls-1" x="11.93" y="55.41" width="40.13" height="1.14"/>
    </g>
  </g>
</svg>