<?xml version="1.0" encoding="UTF-8"?>
<svg id="Layer_2" xmlns="http://www.w3.org/2000/svg" version="1.1" viewBox="0 0 64 64">
  <!-- Generator: Adobe Illustrator 29.3.1, SVG Export Plug-In . SVG Version: 2.1.0 Build 151)  -->
  <defs>
    <style>
      .st0 {
        fill: #036;
      }

      .st1 {
        fill: gold;
      }
    </style>
  </defs>
  <g id="Layer_1-2">
    <rect class="st0" width="64" height="64"/>
    <path class="st1" d="M11.9,53.4c2.1-.7,2.5-2.6,2.5-7.1v-28c0-4.5-.4-6.4-2.5-7.1v-.9h11.7v.9c-2.1.7-2.5,2.6-2.5,7.1v12.1h21.8v-12.1c0-4.5-.4-6.4-2.5-7.1v-.9h11.7v.9c-2.1.7-2.5,2.6-2.5,7.1v28c0,4.5.4,6.4,2.5,7.1v.9h-11.7v-.9c2.1-.7,2.5-2.6,2.5-7.1v-11.7h-21.8v11.7c0,4.5.4,6.4,2.5,7.1v.9h-11.7s0-.9,0-.9Z"/>
  </g>
</svg>