<?xml version="1.0" encoding="UTF-8"?>
<svg id="Layer_2" data-name="Layer 2" xmlns="http://www.w3.org/2000/svg" viewBox="0 0 285.18 99.58">
  <g id="Layer_1-2" data-name="Layer 1">
    <g>
      <path d="M0,96.25c4.58-1.53,5.56-5.69,5.56-15.69V18.61c0-10-.97-14.17-5.56-15.69V.97h25.83v1.94c-4.58,1.53-5.56,5.69-5.56,15.69v26.8h48.33v-26.8c0-10-.97-14.17-5.56-15.69V.97h25.83v1.94c-4.58,1.53-5.56,5.69-5.56,15.69v61.94c0,10,.97,14.17,5.56,15.69v1.94h-25.83v-1.94c4.58-1.53,5.56-5.69,5.56-15.69v-32.64H20.28v32.64c0,10,.97,14.17,5.56,15.69v1.94H0v-1.94Z"/>
      <path d="M108.71,89.72l-.56-20.83,1.81-.28c5.83,15.83,18.19,28.06,36.67,28.06,9.58,0,18.47-6.11,18.47-17.5,0-13.61-17.92-20-29.03-24.44-14.31-5.97-26.25-10.69-26.25-26.81,0-17.22,13.89-27.92,35.69-27.92,10.28,0,19.44,2.22,26.67,5.83l.56,18.05-1.53.56c-5.69-14.31-17.5-22.08-30.97-22.08-11.11,0-19.86,6.53-19.86,17.5,0,12.36,14.03,17.36,25.14,21.8,14.17,5.42,30.97,11.67,30.97,28.33,0,19.03-17.5,29.58-33.47,29.58-14.31,0-27.22-4.58-34.3-9.86Z"/>
      <path d="M194.48,51.25c0-28.05,22.22-51.25,56.25-51.25,10.28,0,24.58,1.94,31.8,6.81l.56,18.33-1.67.42c-5.69-14.31-20-22.92-34.3-22.92-22.22,0-37.92,14.72-37.92,42.36s15.83,51.67,42.92,51.67c15.56,0,26.25-9.44,31.25-23.89l1.81.28-2.22,19.86c-7.36,3.33-17.92,6.67-34.86,6.67-33.19,0-53.61-17.22-53.61-48.33Z"/>
    </g>
  </g>
</svg>